<?xml version="1.0" encoding="UTF-8"?>
<svg width="30px" height="30px" viewBox="0 0 30 30" version="1.1" xmlns="http://www.w3.org/2000/svg" xmlns:xlink="http://www.w3.org/1999/xlink">
    <!-- Generator: Sketch 52.5 (67469) - http://www.bohemiancoding.com/sketch -->
    <title>Shape</title>
    <desc>Created with Sketch.</desc>
    <g id="Project" stroke="none" stroke-width="1" fill="none" fill-rule="evenodd">
        <g id="Works" transform="translate(-363.000000, -483.000000)" fill="#FB5607" fill-rule="nonzero">
            <g id="Projects" transform="translate(62.000000, 450.000000)">
                <g id="Group">
                    <g id="arrow-circle-up-right-f" transform="translate(301.000000, 33.000000)">
                        <path d="M20.742,10.758 C20.7432,10.3598086 20.5855501,9.97758013 20.303985,9.69601502 C20.0224199,9.41444991 19.6401914,9.25680002 19.242,9.258 L10.242,9.258 C9.41357288,9.258 8.742,9.92957288 8.742,10.758 C8.742,11.5864271 9.41357288,12.258 10.242,12.258 L15.621,12.258 L9.696,18.183 C9.31711984,18.5621481 9.16929325,19.1146256 9.30820506,19.6323195 C9.44711687,20.1500134 9.85166309,20.5542737 10.3694551,20.6928195 C10.887247,20.8313652 11.4396198,20.6831481 11.8185,20.304 L17.7435,14.379 L17.7435,19.758 C17.7435,20.5864271 18.4150729,21.258 19.2435,21.258 C20.0719271,21.258 20.7435,20.5864271 20.7435,19.758 L20.7435,10.758 L20.742,10.758 Z M15,30 C6.7155,30 0,23.2845 0,15 C0,6.7155 6.7155,0 15,0 C23.2845,0 30,6.7155 30,15 C30,23.2845 23.2845,30 15,30 Z" id="Shape"></path>
                    </g>
                </g>
            </g>
        </g>
    </g>
</svg>