<?xml version="1.0" encoding="UTF-8"?>
<svg width="65px" height="57px" viewBox="0 0 65 57" version="1.1" xmlns="http://www.w3.org/2000/svg" xmlns:xlink="http://www.w3.org/1999/xlink">
    <!-- Generator: Sketch 52.5 (67469) - http://www.bohemiancoding.com/sketch -->
    <title>awfrejlogo2</title>
    <desc>Created with Sketch.</desc>
    <g id="Project" stroke="none" stroke-width="1" fill="none" fill-rule="evenodd">
        <g id="Works" transform="translate(-683.000000, -1395.000000)">
            <g id="Footer" transform="translate(0.000000, 1363.000000)">
                <g id="awfrejlogo2" transform="translate(683.000000, 32.000000)">
                    <path d="M31.6923077,52.2836364 C32.2051282,53.5054545 32.7179487,54.6254545 33.9487179,55.2363636 C34.974359,55.7963636 36.2564103,55.8472727 37.3333333,55.44 C38.5128205,54.9818182 39.3846154,54.0145455 39.7435897,52.8436364 C40.1538462,51.4690909 39.7435897,50.3490909 39.2307692,49.0763636 C36.7179487,42.8654545 34.2051282,36.6545455 31.6410256,30.3927273 C29.1282051,24.1818182 26.5128205,17.9709091 24.0512821,11.7090909 C22.8717949,8.75636364 21.8461538,5.75272727 20.4102564,2.90181818 C19.7948718,1.68 18.9230769,0.712727273 17.5384615,0.356363636 C16.2051282,0.0509090909 14.7179487,0.356363636 13.7948718,1.37454545 C12.8205128,2.49454545 12.4615385,3.71636364 11.9487179,4.93818182 C11.3333333,6.51636364 10.6666667,8.04363636 10.0512821,9.62181818 C8.76923077,12.7272727 7.48717949,15.8836364 6.25641026,18.9890909 C4.97435897,22.0945455 3.69230769,25.2509091 2.41025641,28.3563636 C1.79487179,29.8836364 1.12820513,31.36 0.564102564,32.8872727 C0.102564103,34.2618182 0.102564103,35.6363636 0.974358974,36.8581818 C1.8974359,38.1309091 3.53846154,38.7927273 5.12820513,38.4872727 C6.92307692,38.1309091 7.84615385,36.7563636 8.46153846,35.1781818 C10.1538462,31.0545455 11.7948718,26.9818182 13.4871795,22.8581818 C14.1025641,23.6218182 14.6666667,24.4363636 15.2820513,25.2 C13.5384615,26.1163636 13.025641,28.4072727 14.2051282,29.9854545 C15.3333333,31.5127273 17.6410256,31.7163636 19.025641,30.3927273 C19.6410256,29.7818182 20,28.9672727 20,28.1018182 C20,27.5927273 19.8974359,27.0836364 19.6410256,26.6254545 C19.5897436,26.5236364 18.9230769,25.6581818 18.9230769,25.6581818 C19.4871795,24.9454545 20.0512821,24.1818182 20.6153846,23.4690909 C22.9230769,29.9345455 25.5384615,36.2981818 28.0512821,42.7127273 C29.2307692,45.92 30.5128205,49.0763636 31.6923077,52.2836364 M16.8205128,15.7818182 C17.5384615,15.5781818 17.9487179,16.1381818 18.1538462,16.7490909 L20.1538462,22.7054545 C19.9487179,22.96 19.7435897,23.2145455 19.5897436,23.4690909 C19.1794872,24.0290909 18.7179487,24.5890909 18.3076923,25.2 C18.2564103,25.2509091 18.2564103,25.2509091 18.2051282,25.3018182 C17.5897436,24.9963636 16.9230769,24.8945455 16.2564103,24.9963636 C16,25.0472727 15.9487179,24.8945455 15.7948718,24.6909091 C15.3333333,24.08 14.8717949,23.4690909 14.4102564,22.8581818 C14.2564103,22.6545455 14.1025641,22.4509091 13.8974359,22.1963636 L16,16.7490909 C16,16.6981818 16.0512821,16.6472727 16.0512821,16.5963636 C16.0512821,16.5963636 16.0512821,16.5963636 16.0512821,16.5963636 C16.2051282,16.1890909 16.4615385,15.8327273 16.8205128,15.7818182" id="Shape" fill="#FFFFFF" fill-rule="nonzero"></path>
                    <path d="M52.6815294,51.30029 C53.5737253,53.4234115 52.524083,55.8572337 50.3723165,56.685769 C48.22055,57.5660876 45.7538908,56.5304186 44.9141771,54.4072971 L32.3184706,23.69971 C31.4262747,21.5765885 32.475917,19.1427663 34.6276835,18.314231 C36.77945,17.4339124 39.2461092,18.4695814 40.0858229,20.5927029 L52.6815294,51.30029 Z" id="Path" fill="#FFFFFF"></path>
                    <path d="M61.9963636,56.2872727 C61.4872727,56.4909091 60.9781818,56.5927273 60.4690909,56.5927273 C58.84,56.5927273 57.3127273,55.6254545 56.7018182,54.0472727 L49.7781818,36.9418182 L37.56,6.75272727 C36.6945455,4.66545455 37.7127273,2.27272727 39.8,1.45818182 C40.3090909,1.25454545 40.8181818,1.15272727 41.3272727,1.15272727 C42.9563636,1.15272727 44.4836364,2.12 45.0945455,3.69818182 L52.0181818,20.8036364 L64.2363636,50.9927273 C65.1018182,53.08 64.0836364,55.4218182 61.9963636,56.2872727 Z" id="Path" fill="#FFFFFF"></path>
                    <path d="M61.9963636,56.2872727 C61.4872727,56.4909091 60.9781818,56.5927273 60.4690909,56.5927273 C58.84,56.5927273 57.3127273,55.6254545 56.7018182,54.0472727 L49.7781818,36.9418182 L37.56,6.75272727 C36.6945455,4.66545455 37.7127273,2.27272727 39.8,1.45818182 C40.3090909,1.25454545 40.8181818,1.15272727 41.3272727,1.15272727 C42.9563636,1.15272727 44.4836364,2.12 45.0945455,3.69818182 L52.0181818,20.8036364 L64.2363636,50.9927273 C65.1018182,53.08 64.0836364,55.4218182 61.9963636,56.2872727 Z" id="Path"></path>
                    <path d="M60.7082722,12.3465004 C59.9318548,13.390647 59.1554375,14.4347936 58.3790201,15.4789401 C60.7600333,15.1656962 62.6234349,17.6194406 61.8470176,19.8643557 C61.0188391,22.1092709 58.0684532,22.7357588 56.4120962,21.012917 C55.6356789,20.229807 55.325112,19.0290385 55.5839177,17.9326846 C55.7392012,17.358404 56.0497681,16.7841234 56.4638574,16.3664647 C56.670902,16.1576354 56.8779466,16.0532208 57.0332301,15.8443914 C57.7578863,14.8524522 58.4825425,13.9127203 59.2071986,12.9207811 C56.7744243,13.5994763 54.1346054,12.7641591 52.5300095,10.8324879 C51.028936,9.00523142 50.5630856,6.44707233 51.4430253,4.20215721 C52.2712038,2.00944942 54.2381277,0.443229564 56.5156185,0.0777782648 C58.8448706,-0.287673034 61.2258837,0.652058877 62.6751961,2.5315227 C65.0562092,5.71616973 64.1245084,10.4148293 60.7082722,12.3465004 Z" id="Path" fill="#FFFFFF"></path>
                </g>
            </g>
        </g>
    </g>
</svg>