<?xml version="1.0" encoding="UTF-8"?>
<svg width="30px" height="30px" viewBox="0 0 30 30" version="1.1" xmlns="http://www.w3.org/2000/svg" xmlns:xlink="http://www.w3.org/1999/xlink">
    <!-- Generator: Sketch 52.5 (67469) - http://www.bohemiancoding.com/sketch -->
    <title>github-circle</title>
    <desc>Created with Sketch.</desc>
    <g id="Project" stroke="none" stroke-width="1" fill="none" fill-rule="evenodd">
        <g id="Works" transform="translate(-838.000000, -519.000000)" fill="#FB5607">
            <g id="Projects" transform="translate(62.000000, 450.000000)">
                <g id="Group-Copy" transform="translate(475.000000, 0.000000)">
                    <g id="github-circle" transform="translate(301.000000, 69.000000)">
                        <path d="M12.27,22.512 C12.45,22.512 12.5865,22.506 12.6765,22.494 C12.7820822,22.4726285 12.8772787,22.4160394 12.9465,22.3335 C13.0365,22.239 13.0815,22.1025 13.0815,21.9225 L13.0755,21.087 C13.071,20.5545 13.0695,20.1315 13.0695,19.821 L12.7875,19.8705 C12.5618381,19.9060331 12.333316,19.920096 12.105,19.9125 C11.8181418,19.9074234 11.5321831,19.8788275 11.25,19.827 C10.9505401,19.7711648 10.6687321,19.6446598 10.428,19.458 C10.1756435,19.2670884 9.98731155,19.0039468 9.888,18.7035 L9.765,18.42 C9.66154217,18.1967395 9.53160923,17.9867316 9.378,17.7945 C9.24008642,17.5973885 9.05630571,17.4367734 8.8425,17.3265 L8.757,17.2665 C8.69812148,17.223123 8.6447304,17.172754 8.598,17.1165 C8.5526475,17.0653787 8.51523017,17.0077358 8.487,16.9455 C8.463,16.8885 8.4825,16.8405 8.547,16.8045 C8.66020639,16.7590025 8.78232408,16.7400178 8.904,16.749 L9.15,16.7865 C9.315,16.818 9.5175,16.917 9.759,17.0805 C9.999,17.2455 10.1985,17.457 10.3545,17.7195 C10.5435,18.0555 10.77,18.312 11.037,18.4875 C11.2726778,18.6537057 11.5526702,18.7456435 11.841,18.7515 C12.111,18.7515 12.345,18.732 12.5415,18.6915 C12.7327676,18.6518329 12.9185924,18.5893877 13.095,18.5055 C13.1685,17.958 13.368,17.535 13.695,17.241 C13.2704794,17.1990064 12.8497665,17.1247924 12.4365,17.019 C12.0329915,16.9077859 11.6449794,16.7465341 11.2815,16.539 C10.9008469,16.3324864 10.5644765,16.0531971 10.2915,15.717 C10.0305,15.3885 9.816,14.9595 9.6465,14.427 C9.46977005,13.8288074 9.38529902,13.2071613 9.396,12.5835 C9.396,11.5935 9.72,10.749 10.3665,10.053 C10.0635,9.3075 10.092,8.472 10.452,7.5465 C10.6905,7.4715 11.043,7.527 11.5095,7.7115 C11.976,7.896 12.3195,8.0535 12.5355,8.1855 C12.753,8.316 12.9255,8.4255 13.0575,8.5155 C13.8257649,8.30213638 14.6196611,8.19513957 15.417,8.1975 C16.227,8.1975 17.0145,8.3025 17.7765,8.517 L18.2415,8.2215 C18.5625,8.0265 18.939,7.845 19.3725,7.6815 C19.8075,7.5165 20.139,7.4715 20.3685,7.5465 C20.7375,8.472 20.7705,9.3075 20.466,10.0515 C21.114,10.749 21.438,11.592 21.438,12.5835 C21.438,13.2795 21.354,13.896 21.186,14.433 C21.018,14.97 20.8005,15.399 20.535,15.723 C20.2575399,16.0558877 19.9195952,16.3332669 19.539,16.5405 C19.1755484,16.7480907 18.787529,16.9093455 18.384,17.0205 C17.9702088,17.1258899 17.54899,17.1996032 17.124,17.241 C17.55,17.6085 17.763,18.1905 17.763,18.9855 L17.763,21.921 C17.763,22.0605 17.784,22.173 17.8245,22.26 C17.8630105,22.3437388 17.9339577,22.408187 18.021,22.4385 C18.111,22.47 18.192,22.491 18.261,22.4985 C18.3315,22.5075 18.4305,22.512 18.561,22.512 L15.612,22.512 L12.2715,22.512 L12.27,22.512 Z" id="Path"></path>
                        <path d="M15,27 C21.627417,27 27,21.627417 27,15 C27,8.372583 21.627417,3 15,3 C8.372583,3 3,8.372583 3,15 C3,21.627417 8.372583,27 15,27 Z M15,30 C6.7155,30 0,23.2845 0,15 C0,6.7155 6.7155,0 15,0 C23.2845,0 30,6.7155 30,15 C30,23.2845 23.2845,30 15,30 Z" id="Shape" fill-rule="nonzero"></path>
                    </g>
                </g>
            </g>
        </g>
    </g>
</svg>