<?xml version="1.0" encoding="UTF-8"?>
<svg width="20px" height="20px" viewBox="0 0 20 20" version="1.1" xmlns="http://www.w3.org/2000/svg" xmlns:xlink="http://www.w3.org/1999/xlink">
    <!-- Generator: Sketch 52.5 (67469) - http://www.bohemiancoding.com/sketch -->
    <title>github</title>
    <desc>Created with Sketch.</desc>
    <g id="Project" stroke="none" stroke-width="1" fill="none" fill-rule="evenodd">
        <g id="About-(desktop)" transform="translate(-651.000000, -847.000000)" fill="#657877">
            <g id="footer-social-links-copy" transform="translate(628.000000, 756.000000)">
                <g id="github" transform="translate(23.000000, 91.000000)">
                    <path d="M18.88,1.099 C18.147,0.366 17.265,0 16.233,0 L3.746,0 C2.714,0 1.832,0.366 1.099,1.099 C0.366,1.832 0,2.714 0,3.746 L0,16.233 C0,17.265 0.366,18.147 1.099,18.88 C1.832,19.613 2.714,19.979 3.746,19.979 L6.66,19.979 C6.85,19.979 6.993,19.972 7.089,19.959 C7.20069275,19.9366067 7.30150509,19.8770358 7.375,19.79 C7.47,19.69 7.518,19.545 7.518,19.355 L7.511,18.47 C7.507,17.906 7.505,17.46 7.505,17.13 L7.205,17.182 C7.015,17.217 6.775,17.232 6.484,17.228 C6.18068738,17.2224017 5.87834302,17.1919666 5.58,17.137 C5.26240316,17.078361 4.96342691,16.9446446 4.708,16.747 C4.44049324,16.5446308 4.24097264,16.265581 4.136,15.947 L4.006,15.647 C3.89642836,15.4103509 3.75877175,15.1877501 3.596,14.984 C3.41,14.741 3.221,14.577 3.03,14.49 L2.94,14.425 C2.87724307,14.380054 2.82016077,14.3276726 2.77,14.269 C2.72209191,14.2145453 2.68265037,14.1531918 2.653,14.087 C2.627,14.026 2.649,13.976 2.718,13.937 C2.788,13.897 2.913,13.878 3.096,13.878 L3.356,13.918 C3.529,13.952 3.744,14.056 3.999,14.229 C4.2570605,14.4049353 4.47262794,14.6362177 4.63,14.906 C4.83,15.261 5.07,15.532 5.352,15.719 C5.634,15.905 5.918,15.999 6.204,15.999 C6.49,15.999 6.737,15.977 6.946,15.934 C7.14811278,15.8922084 7.3445058,15.8264083 7.531,15.738 C7.609,15.158 7.821,14.71 8.168,14.398 C7.71837522,14.3539191 7.27275585,14.2756933 6.835,14.164 C6.40779266,14.0466422 5.99693821,13.8763207 5.612,13.657 C5.20924465,13.4377298 4.8535046,13.1414497 4.565,12.785 C4.288,12.438 4.06,11.983 3.882,11.42 C3.705,10.856 3.616,10.205 3.616,9.468 C3.616,8.419 3.958,7.526 4.643,6.788 C4.323,6 4.353,5.115 4.734,4.136 C4.986,4.057 5.359,4.116 5.853,4.311 C6.347,4.506 6.709,4.673 6.939,4.811 C7.169,4.951 7.353,5.068 7.492,5.163 C8.30497621,4.93675327 9.14513152,4.8230278 9.989,4.825 C10.848,4.825 11.68,4.938 12.487,5.163 L12.981,4.851 C13.3609833,4.62285263 13.7617843,4.43132531 14.178,4.279 C14.638,4.105 14.988,4.058 15.232,4.136 C15.622,5.116 15.656,6 15.335,6.789 C16.02,7.526 16.363,8.419 16.363,9.469 C16.363,10.206 16.274,10.859 16.096,11.426 C15.919,11.994 15.689,12.449 15.407,12.792 C15.125,13.135 14.774,13.422 14.354,13.657 C13.934,13.891 13.526,14.06 13.131,14.164 C12.6932762,14.276057 12.2476544,14.3546174 11.798,14.399 C12.248,14.789 12.474,15.404 12.474,16.245 L12.474,19.355 C12.474,19.502 12.495,19.621 12.539,19.712 C12.5798628,19.8005791 12.6549234,19.8687832 12.747,19.901 C12.843,19.935 12.927,19.957 13.001,19.965 C13.075,19.975 13.181,19.978 13.319,19.978 L16.233,19.978 C17.265,19.978 18.147,19.612 18.88,18.879 C19.612,18.147 19.979,17.264 19.979,16.232 L19.979,3.746 C19.979,2.714 19.612,1.832 18.879,1.099 L18.88,1.099 Z" id="Path"></path>
                </g>
            </g>
        </g>
    </g>
</svg>