<?xml version="1.0" encoding="UTF-8"?>
<svg width="20px" height="20px" viewBox="0 0 20 20" version="1.1" xmlns="http://www.w3.org/2000/svg" xmlns:xlink="http://www.w3.org/1999/xlink">
    <!-- Generator: Sketch 52.5 (67469) - http://www.bohemiancoding.com/sketch -->
    <title>google-square</title>
    <desc>Created with Sketch.</desc>
    <g id="Project" stroke="none" stroke-width="1" fill="none" fill-rule="evenodd">
        <g id="About-(desktop)" transform="translate(-651.000000, -823.000000)" fill="#657877">
            <g id="footer-social-links-copy" transform="translate(628.000000, 756.000000)">
                <g id="google-square" transform="translate(23.000000, 67.000000)">
                    <path d="M7.188,9.034 C6.96358536,9.68691428 6.97348532,10.3975902 7.216,11.044 C7.5238888,11.8648855 8.17840382,12.508021 9.00456256,12.8014664 C9.8307213,13.0949119 10.7442794,13.0087442 11.501,12.566 C12.090481,12.2207262 12.5434328,11.6833976 12.784,11.044 L10.11,11.044 L10.11,9.066 L14.913,9.066 C15.2569966,10.8826697 14.5714148,12.7410078 13.13,13.899 C11.4177538,15.2736028 9.00905789,15.370255 7.19217849,14.137263 C5.37529909,12.904271 4.57545147,10.6301994 5.22042591,8.53131208 C5.86540034,6.43242475 7.80424955,4.99993694 10,5 C11.213,5.001 12.326,5.433 13.191,6.152 L11.571,7.478 C10.8022129,6.99936249 9.85722827,6.89709532 9.00384243,7.20017966 C8.1504566,7.503264 7.48166706,8.17867131 7.187,9.035 L7.188,9.035 L7.188,9.034 Z" id="Path"></path>
                    <path d="M4,2 C2.8954305,2 2,2.8954305 2,4 L2,16 C2,17.1045695 2.8954305,18 4,18 L16,18 C17.1045695,18 18,17.1045695 18,16 L18,4 C18,2.8954305 17.1045695,2 16,2 L4,2 Z M4,0 L16,0 C18.209139,1.3527075e-16 20,1.790861 20,4 L20,16 C20,18.209139 18.209139,20 16,20 L4,20 C1.790861,20 2.705415e-16,18.209139 0,16 L0,4 C-2.705415e-16,1.790861 1.790861,4.05812251e-16 4,0 Z" id="Shape" fill-rule="nonzero"></path>
                </g>
            </g>
        </g>
    </g>
</svg>