<?xml version="1.0" encoding="UTF-8"?>
<svg width="20px" height="20px" viewBox="0 0 20 20" version="1.1" xmlns="http://www.w3.org/2000/svg" xmlns:xlink="http://www.w3.org/1999/xlink">
    <!-- Generator: Sketch 52.5 (67469) - http://www.bohemiancoding.com/sketch -->
    <title>linkedin-square</title>
    <desc>Created with Sketch.</desc>
    <g id="Project" stroke="none" stroke-width="1" fill="none" fill-rule="evenodd">
        <g id="About-(desktop)" transform="translate(-651.000000, -871.000000)" fill="#657877" fill-rule="nonzero">
            <g id="footer-social-links-copy" transform="translate(628.000000, 756.000000)">
                <g id="linkedin-square" transform="translate(23.000000, 115.000000)">
                    <path d="M15,11.13 L15,14.827 L12.857,14.827 L12.857,11.377 C12.857,10.511 12.547,9.92 11.771,9.92 C11.179,9.92 10.826,10.318 10.671,10.704 C10.615,10.842 10.6,11.034 10.6,11.226 L10.6,14.827 L8.456,14.827 C8.456,14.827 8.485,8.985 8.456,8.38 L10.6,8.38 L10.6,9.293 L10.586,9.314 L10.6,9.314 L10.6,9.294 C10.885,8.854 11.393,8.228 12.532,8.228 C13.942,8.228 15,9.15 15,11.13 Z M6.213,5.271 C5.48,5.271 5,5.753 5,6.385 C5,7.005 5.466,7.5 6.185,7.5 L6.199,7.5 C6.947,7.5 7.412,7.004 7.412,6.385 C7.398,5.753 6.947,5.271 6.213,5.271 Z M5.127,14.827 L7.271,14.827 L7.271,8.38 L5.127,8.38 L5.127,14.827 Z" id="Shape"></path>
                    <path d="M4,2 C2.8954305,2 2,2.8954305 2,4 L2,16 C2,17.1045695 2.8954305,18 4,18 L16,18 C17.1045695,18 18,17.1045695 18,16 L18,4 C18,2.8954305 17.1045695,2 16,2 L4,2 Z M4,0 L16,0 C18.209139,1.3527075e-16 20,1.790861 20,4 L20,16 C20,18.209139 18.209139,20 16,20 L4,20 C1.790861,20 2.705415e-16,18.209139 0,16 L0,4 C-2.705415e-16,1.790861 1.790861,4.05812251e-16 4,0 Z" id="Shape"></path>
                </g>
            </g>
        </g>
    </g>
</svg>