<?xml version="1.0" encoding="UTF-8"?>
<svg width="18px" height="20px" viewBox="0 0 18 20" version="1.1" xmlns="http://www.w3.org/2000/svg" xmlns:xlink="http://www.w3.org/1999/xlink">
    <!-- Generator: Sketch 52.5 (67469) - http://www.bohemiancoding.com/sketch -->
    <title>document-f</title>
    <desc>Created with Sketch.</desc>
    <g id="Project" stroke="none" stroke-width="1" fill="none" fill-rule="evenodd">
        <g id="About-(desktop)" transform="translate(-652.000000, -799.000000)" fill="#657877" fill-rule="nonzero">
            <g id="footer-social-links-copy" transform="translate(628.000000, 756.000000)">
                <g id="document-f" transform="translate(24.000000, 43.000000)">
                    <path d="M3.375,0 L14.625,0 C16.488961,1.01453063e-16 18,1.34314575 18,3 L18,17 C18,18.6568542 16.488961,20 14.625,20 L3.375,20 C1.51103897,20 2.28269391e-16,18.6568542 0,17 L0,3 C-2.28269391e-16,1.34314575 1.51103897,3.04359188e-16 3.375,0 Z M4.5,7 C3.87867966,7 3.375,7.44771525 3.375,8 C3.375,8.55228475 3.87867966,9 4.5,9 L13.5,9 C14.1213203,9 14.625,8.55228475 14.625,8 C14.625,7.44771525 14.1213203,7 13.5,7 L4.5,7 Z M4.5,15 C3.87867966,15 3.375,15.4477153 3.375,16 C3.375,16.5522847 3.87867966,17 4.5,17 L10.125,17 C10.7463203,17 11.25,16.5522847 11.25,16 C11.25,15.4477153 10.7463203,15 10.125,15 L4.5,15 Z M4.5,3 C3.87867966,3 3.375,3.44771525 3.375,4 C3.375,4.55228475 3.87867966,5 4.5,5 L13.5,5 C14.1213203,5 14.625,4.55228475 14.625,4 C14.625,3.44771525 14.1213203,3 13.5,3 L4.5,3 Z M4.5,11 C3.87867966,11 3.375,11.4477153 3.375,12 C3.375,12.5522847 3.87867966,13 4.5,13 L13.5,13 C14.1213203,13 14.625,12.5522847 14.625,12 C14.625,11.4477153 14.1213203,11 13.5,11 L4.5,11 Z" id="Shape"></path>
                </g>
            </g>
        </g>
    </g>
</svg>